<svg width="24" height="22" viewBox="0 0 24 22" fill="none" xmlns="http://www.w3.org/2000/svg">
<rect x="1.74609" y="0.75" width="10.9495" height="19.9131" rx="1.25" stroke="#0049B7" stroke-width="1.5"/>
<mask id="path-2-inside-1_2718_68986" fill="white">
<rect x="3.09668" y="3.09668" width="8.2583" height="7.22601" rx="1"/>
</mask>
<rect x="3.09668" y="3.09668" width="8.2583" height="7.22601" rx="1" stroke="#0049B7" stroke-width="3" mask="url(#path-2-inside-1_2718_68986)"/>
<path d="M12.9473 10.8338V10.8338C14.1304 10.8338 15.0895 11.7929 15.0895 12.976V15.6392C15.0895 16.9848 15.6251 19.1295 17.5888 18.907C19.5525 18.6844 19.9096 16.6817 19.9096 15.2548C19.9096 13.8279 19.1955 10.6415 19.374 7.95048C19.5525 5.25942 21.1592 2.95279 22.4089 1.9917" stroke="#0049B7" stroke-width="1.5" stroke-linecap="round" stroke-linejoin="round"/>
<rect x="0.497979" y="20.5063" width="13.4454" height="0.995959" rx="0.497979" fill="#0049B7" stroke="#0049B7" stroke-width="0.995959"/>
<path d="M20.4179 5.47803V5.47803C21.3325 5.7017 21.9437 6.56344 21.8525 7.50053L21.7675 8.37381C21.6799 9.27357 20.9235 9.95984 20.0195 9.95984V9.95984" stroke="#0049B7" stroke-width="1.5"/>
</svg>
