<svg width="810" height="258" viewBox="0 0 810 258" fill="none" xmlns="http://www.w3.org/2000/svg">
<path fill-rule="evenodd" clip-rule="evenodd" d="M1 1V257H48L69 174.719V257H108.35L111.666 240.712L118 257H202L182.399 198.196H186.655L202.117 257H249L202 100.352V1H172.191L202 100.352V131H160L182.399 198.196H120.32L111.666 240.712L75.7369 148.323L113.337 1H1ZM75.7369 148.323L69 174.719V131L75.7369 148.323Z" fill="#2504AB"/>
<path d="M1 257H0.5V257.5H1V257ZM1 1V0.5H0.5V1H1ZM48 257V257.5H48.3884L48.4845 257.124L48 257ZM69 257H68.5V257.5H69V257ZM108.35 257V257.5H108.758L108.84 257.1L108.35 257ZM118 257L117.534 257.181L117.658 257.5H118V257ZM202 257V257.5H202.694L202.474 256.842L202 257ZM186.655 198.196L187.139 198.069L187.041 197.696H186.655V198.196ZM202.117 257L201.633 257.127L201.731 257.5H202.117V257ZM249 257V257.5H249.672L249.479 256.856L249 257ZM202 1H202.5V0.5H202V1ZM172.191 1V0.5H171.519L171.712 1.14369L172.191 1ZM202 131V131.5H202.5V131H202ZM160 131V130.5H159.306L159.526 131.158L160 131ZM120.32 198.196V197.696H119.912L119.83 198.096L120.32 198.196ZM113.337 1L113.822 1.12365L113.981 0.5H113.337V1ZM69 131L69.466 130.819L68.5 131H69ZM1.5 257V1H0.5V257H1.5ZM48 256.5H1V257.5H48V256.5ZM68.5155 174.596L47.5155 256.876L48.4845 257.124L69.4845 174.843L68.5155 174.596ZM68.5 174.719V257H69.5V174.719H68.5ZM69 257.5H108.35V256.5H69V257.5ZM108.84 257.1L112.156 240.811L111.176 240.612L107.86 256.9L108.84 257.1ZM118.466 256.819L112.132 240.53L111.2 240.893L117.534 257.181L118.466 256.819ZM202 256.5H118V257.5H202V256.5ZM181.924 198.354L201.526 257.158L202.474 256.842L182.873 198.038L181.924 198.354ZM182.399 198.696H186.655V197.696H182.399V198.696ZM186.172 198.323L201.633 257.127L202.6 256.873L187.139 198.069L186.172 198.323ZM202.117 257.5H249V256.5H202.117V257.5ZM249.479 256.856L202.479 100.208L201.521 100.495L248.521 257.144L249.479 256.856ZM201.5 1V100.352H202.5V1H201.5ZM172.191 1.5H202V0.5H172.191V1.5ZM202.479 100.208L172.67 0.856311L171.712 1.14369L201.521 100.495L202.479 100.208ZM201.5 100.352V131H202.5V100.352H201.5ZM202 130.5H160V131.5H202V130.5ZM159.526 131.158L181.924 198.354L182.873 198.038L160.474 130.842L159.526 131.158ZM120.32 198.696H182.399V197.696H120.32V198.696ZM112.156 240.811L120.81 198.296L119.83 198.096L111.176 240.612L112.156 240.811ZM112.132 240.53L76.2029 148.142L75.2709 148.505L111.2 240.893L112.132 240.53ZM112.853 0.876351L75.2524 148.2L76.2214 148.447L113.822 1.12365L112.853 0.876351ZM1 1.5H113.337V0.5H1V1.5ZM75.2524 148.2L68.5155 174.596L69.4845 174.843L76.2214 148.447L75.2524 148.2ZM68.5 131V174.719H69.5V131H68.5ZM76.2029 148.142L69.466 130.819L68.534 131.181L75.2709 148.505L76.2029 148.142Z" fill="black" fill-opacity="0.2"/>
<path fill-rule="evenodd" clip-rule="evenodd" d="M48 257H69V174.719L48 257ZM75.7369 148.323L111.666 240.712L120.32 198.196H182.399L160 131H202V100.352L172.191 1H113.337L75.7369 148.323Z" fill="#0D39D8"/>
<path d="M48 257L47.5155 256.876L47.3564 257.5H48V257ZM69 257V257.5H69.5V257H69ZM69 174.719H69.5L68.5155 174.596L69 174.719ZM111.666 240.712L111.2 240.893L111.816 242.478L112.156 240.811L111.666 240.712ZM75.7369 148.323L75.2524 148.2L75.2128 148.355L75.2709 148.505L75.7369 148.323ZM120.32 198.196V197.696H119.912L119.83 198.096L120.32 198.196ZM182.399 198.196V198.696H183.092L182.873 198.038L182.399 198.196ZM160 131V130.5H159.306L159.526 131.158L160 131ZM202 131V131.5H202.5V131H202ZM202 100.352H202.5V100.278L202.479 100.208L202 100.352ZM172.191 1L172.67 0.856311L172.563 0.5H172.191V1ZM113.337 1V0.5H112.949L112.853 0.876351L113.337 1ZM48 257.5H69V256.5H48V257.5ZM68.5 174.719V257H69.5V174.719H68.5ZM68.5155 174.596L47.5155 256.876L48.4845 257.124L69.4845 174.843L68.5155 174.596ZM112.132 240.53L76.2029 148.142L75.2709 148.505L111.2 240.893L112.132 240.53ZM112.156 240.811L120.81 198.296L119.83 198.096L111.176 240.612L112.156 240.811ZM120.32 198.696H182.399V197.696H120.32V198.696ZM159.526 131.158L181.924 198.354L182.873 198.038L160.474 130.842L159.526 131.158ZM202 130.5H160V131.5H202V130.5ZM201.5 100.352V131H202.5V100.352H201.5ZM202.479 100.208L172.67 0.856311L171.712 1.14369L201.521 100.495L202.479 100.208ZM172.191 0.5H113.337V1.5H172.191V0.5ZM112.853 0.876351L75.2524 148.2L76.2214 148.447L113.822 1.12365L112.853 0.876351Z" fill="black" fill-opacity="0.2"/>
<path fill-rule="evenodd" clip-rule="evenodd" d="M33 1V257H48L113.337 1H33ZM172.191 1L211.196 131H192L234 257H249L211.196 131H234V1H172.191ZM202.117 257L186.655 198.196H127.132L101 131V257H108.35L120.32 198.196H127.132L150 257H202.117Z" fill="#B30F0F"/>
<path d="M33 257H32.5V257.5H33V257ZM33 1V0.5H32.5V1H33ZM48 257V257.5H48.3884L48.4845 257.124L48 257ZM113.337 1L113.822 1.12365L113.981 0.5H113.337V1ZM172.191 1V0.5H171.519L171.712 1.14369L172.191 1ZM192 131V130.5H191.306L191.526 131.158L192 131ZM234 257L233.526 257.158L233.64 257.5H234V257ZM249 257V257.5H249.672L249.479 256.856L249 257ZM234 131V131.5H234.5V131H234ZM234 1H234.5V0.5H234V1ZM186.655 198.196L187.139 198.069L187.041 197.696H186.655V198.196ZM202.117 257V257.5H202.765L202.6 256.873L202.117 257ZM101 131L101.466 130.819L100.5 131H101ZM101 257H100.5V257.5H101V257ZM108.35 257V257.5H108.758L108.84 257.1L108.35 257ZM120.32 198.196V197.696H119.912L119.83 198.096L120.32 198.196ZM150 257L149.534 257.181L149.658 257.5H150V257ZM33.5 257V1H32.5V257H33.5ZM48 256.5H33V257.5H48V256.5ZM112.853 0.876351L47.5155 256.876L48.4845 257.124L113.822 1.12365L112.853 0.876351ZM33 1.5H113.337V0.5H33V1.5ZM211.675 130.856L172.67 0.856311L171.712 1.14369L210.717 131.144L211.675 130.856ZM211.196 130.5H192V131.5H211.196V130.5ZM191.526 131.158L233.526 257.158L234.474 256.842L192.474 130.842L191.526 131.158ZM234 257.5H249V256.5H234V257.5ZM249.479 256.856L211.675 130.856L210.717 131.144L248.521 257.144L249.479 256.856ZM234 130.5H211.196V131.5H234V130.5ZM233.5 1V131H234.5V1H233.5ZM172.191 1.5H234V0.5H172.191V1.5ZM186.172 198.323L201.633 257.127L202.6 256.873L187.139 198.069L186.172 198.323ZM127.132 198.696H186.655V197.696H127.132V198.696ZM127.598 198.015L101.466 130.819L100.534 131.181L126.666 198.377L127.598 198.015ZM100.5 131V257H101.5V131H100.5ZM101 257.5H108.35V256.5H101V257.5ZM108.84 257.1L120.81 198.296L119.83 198.096L107.86 256.9L108.84 257.1ZM120.32 198.696H127.132V197.696H120.32V198.696ZM150.466 256.819L127.598 198.015L126.666 198.377L149.534 257.181L150.466 256.819ZM202.117 256.5H150V257.5H202.117V256.5Z" fill="black"/>
<path fill-rule="evenodd" clip-rule="evenodd" d="M272.531 21.2486V194.808H361.5V257H466.312V138.747H483.984L491.906 194.808H528.469L510.792 110.896H542.92V257H570.027V194.808H641.812V257H724.688V83.4407H641.812V161.143H592.872V110.896H615V83.4407H592.872V63.8903H651.562V21.2486H566.25V83.4407H505.008L491.906 21.2486H455.344L439.703 84.887H438.891V88.1929L412.688 194.808H438.891V225.318H387.094V84.887H361.5V87.8295H307.474V50.4245H374.906V21.2486H272.531ZM361.5 126.731V158.151H307.474V126.731H361.5ZM678.375 21.2486H810V64.449H759.422V194.808H727.734V64.449H678.375V21.2486Z" fill="#AF180E"/>
<path fill-rule="evenodd" clip-rule="evenodd" d="M264 1V174.559H352.969V236.751H457.781V118.498H475.453L483.375 174.559H519.938L502.26 90.6478H534.388V236.751H561.496V174.559H633.281V236.751H716.156V63.1921H633.281V140.895H584.341V90.6478H606.469V63.1921H584.341V43.6417H643.031V1H557.719V63.1921H496.477L483.375 1H446.812L431.172 64.6384H430.359V67.9443L404.156 174.559H430.359V205.069H378.562V64.6384H352.969V67.5809H298.942V30.1759H366.375V1H264ZM352.969 106.482V67.5809H366.375V106.482H352.969ZM352.969 137.902H298.942V106.482H352.969V137.902ZM352.969 137.902V174.559H366.375V137.902H352.969ZM430.359 174.559V67.9443L431.172 64.6384H457.781V118.498H456.562L446.812 174.559H430.359ZM557.719 63.1921H584.341V90.6478H561.496V174.559H557.719V63.1921ZM633.281 140.895V174.559H643.031V140.895H633.281ZM496.477 63.1921H494.344V90.6478H502.26L496.477 63.1921ZM801.469 1H669.844V44.2004H719.203V174.559H750.891V44.2004H801.469V1Z" fill="#201DA9"/>
</svg>
