<svg width="22" height="23" viewBox="0 0 22 23" fill="none" xmlns="http://www.w3.org/2000/svg">
<path d="M11 0C17.0753 0 22 4.9247 22 11C22 17.0753 17.0753 22 11 22C9.24439 22.0024 7.51391 21.5829 5.95431 20.7768L1.74571 21.9505C1.5109 22.016 1.2629 22.0179 1.02711 21.9561C0.791311 21.8942 0.576206 21.7707 0.40383 21.5984C0.231453 21.426 0.108003 21.2109 0.046129 20.9751C-0.0157453 20.7393 -0.0138194 20.4913 0.0517092 20.2565L1.22651 16.0512C0.418396 14.4902 -0.00227568 12.7577 9.25864e-06 11C9.25864e-06 4.9247 4.92471 0 11 0ZM11 1.65C8.52023 1.65 6.14202 2.63509 4.38856 4.38855C2.63509 6.14201 1.65001 8.52022 1.65001 11C1.65001 12.617 2.06031 14.1713 2.83031 15.5507L2.99531 15.8477L1.77211 20.2301L6.15781 19.0069L6.45481 19.1719C7.70263 19.8657 9.09275 20.2644 10.5186 20.3377C11.9444 20.4109 13.3681 20.1567 14.6804 19.5944C15.9928 19.0321 17.1589 18.1768 18.0894 17.094C19.02 16.0112 19.6902 14.7297 20.0487 13.3477C20.4072 11.9657 20.4444 10.52 20.1575 9.1214C19.8707 7.72281 19.2674 6.40847 18.3938 5.27919C17.5203 4.14991 16.3997 3.23567 15.1181 2.60659C13.8364 1.9775 12.4277 1.65027 11 1.65ZM7.42501 12.1H12.3728C12.5818 12.1001 12.783 12.1795 12.9358 12.3222C13.0885 12.4649 13.1814 12.6602 13.1956 12.8688C13.2099 13.0773 13.1444 13.2835 13.0125 13.4456C12.8806 13.6078 12.6921 13.7138 12.485 13.7423L12.3728 13.75H7.42501C7.21598 13.7499 7.01477 13.6705 6.86204 13.5278C6.7093 13.3851 6.61643 13.1898 6.60218 12.9812C6.58793 12.7727 6.65337 12.5665 6.78528 12.4044C6.91719 12.2422 7.10573 12.1362 7.31281 12.1077L7.42501 12.1H12.3728H7.42501ZM7.42501 8.25H14.5805C14.7894 8.25034 14.9905 8.32994 15.143 8.47273C15.2955 8.61552 15.3882 8.81086 15.4023 9.01931C15.4164 9.22777 15.3509 9.43381 15.219 9.59584C15.0871 9.75787 14.8986 9.86382 14.6916 9.8923L14.5805 9.9H7.42501C7.21598 9.89993 7.01477 9.82053 6.86204 9.67783C6.7093 9.53513 6.61643 9.33977 6.60218 9.13123C6.58793 8.92269 6.65337 8.71652 6.78528 8.55437C6.91719 8.39222 7.10573 8.28619 7.31281 8.2577L7.42501 8.25H14.5805H7.42501Z" fill="white"/>
</svg>
