<svg width="32" height="32" viewBox="0 0 32 32" fill="none" xmlns="http://www.w3.org/2000/svg">
<path d="M23.7632 18.7436C22.4316 18.7436 21.221 19.3333 20.4947 20.2769L13.3526 16.7974C13.4132 16.5025 13.4737 16.1487 13.4737 15.7949C13.4737 15.3821 13.4132 15.0282 13.2921 14.6743L20.5553 10.841C21.3421 11.7256 22.4921 12.2564 23.7632 12.2564C26.1237 12.2564 28 10.4282 28 8.12821C28 5.82821 26.1237 4 23.7632 4C21.4026 4 19.5263 5.82821 19.5263 8.12821C19.5263 8.54103 19.5868 8.89489 19.7079 9.24873L12.4447 13.0821C11.6579 12.1975 10.5079 11.6667 9.23684 11.6667C6.87632 11.6667 5 13.4949 5 15.7949C5 18.0949 6.87632 19.9231 9.23684 19.9231C10.5684 19.9231 11.779 19.3333 12.5053 18.3898L19.6474 21.8693C19.5868 22.1641 19.5263 22.5179 19.5263 22.8718C19.5263 25.1718 21.4026 27 23.7632 27C26.1237 27 28 25.1718 28 22.8718C28 20.5718 26.1237 18.7436 23.7632 18.7436ZM23.7632 5.76923C25.0947 5.76923 26.1842 6.83077 26.1842 8.12821C26.1842 9.42564 25.0947 10.4872 23.7632 10.4872C22.4316 10.4872 21.3421 9.42564 21.3421 8.12821C21.3421 6.83077 22.4316 5.76923 23.7632 5.76923ZM9.23684 18.1538C7.90526 18.1538 6.81579 17.0923 6.81579 15.7949C6.81579 14.4974 7.90526 13.4359 9.23684 13.4359C10.5684 13.4359 11.6579 14.4974 11.6579 15.7949C11.6579 17.0923 10.5684 18.1538 9.23684 18.1538ZM23.7632 25.2308C22.4316 25.2308 21.3421 24.1692 21.3421 22.8718C21.3421 21.5744 22.4316 20.5128 23.7632 20.5128C25.0947 20.5128 26.1842 21.5744 26.1842 22.8718C26.1842 24.1692 25.0947 25.2308 23.7632 25.2308Z" fill="#0049B7"/>
</svg>
