<svg width="25" height="24" viewBox="0 0 25 24" fill="none" xmlns="http://www.w3.org/2000/svg">
<path d="M3.68652 11.8428H21.2979" stroke="#0049B7" stroke-width="1.5"/>
<path d="M3.68652 11.8428H21.2979" stroke="#0049B7" stroke-width="1.5" stroke-miterlimit="10" stroke-linecap="round" stroke-linejoin="round"/>
<path d="M12.4917 6.37256V17.3136" stroke="#0049B7" stroke-width="1.5"/>
<path d="M12.4917 6.37256V17.3136" stroke="#0049B7" stroke-width="1.5" stroke-miterlimit="10" stroke-linecap="round" stroke-linejoin="round"/>
<path d="M21.2979 6.37256V11.8432" stroke="#0049B7" stroke-width="1.5"/>
<path d="M21.2979 6.37256V11.8432" stroke="#0049B7" stroke-width="1.5" stroke-miterlimit="10" stroke-linecap="round" stroke-linejoin="round"/>
<path d="M3.68652 6.37256V17.3142" stroke="#0049B7" stroke-width="1.5"/>
<path d="M3.68652 6.37256V17.3142" stroke="#0049B7" stroke-width="1.5" stroke-miterlimit="10" stroke-linecap="round" stroke-linejoin="round"/>
<path d="M3.6862 6.3724C5.16975 6.3724 6.3724 5.16975 6.3724 3.6862C6.3724 2.20265 5.16975 1 3.6862 1C2.20265 1 1 2.20265 1 3.6862C1 5.16975 2.20265 6.3724 3.6862 6.3724Z" stroke="#0049B7" stroke-width="1.5" stroke-miterlimit="10" stroke-linecap="round" stroke-linejoin="round"/>
<path d="M12.4919 6.3724C13.9754 6.3724 15.1781 5.16975 15.1781 3.6862C15.1781 2.20265 13.9754 1 12.4919 1C11.0083 1 9.80566 2.20265 9.80566 3.6862C9.80566 5.16975 11.0083 6.3724 12.4919 6.3724Z" stroke="#0049B7" stroke-width="1.5" stroke-miterlimit="10" stroke-linecap="round" stroke-linejoin="round"/>
<path d="M21.298 6.3724C22.7816 6.3724 23.9842 5.16975 23.9842 3.6862C23.9842 2.20265 22.7816 1 21.298 1C19.8145 1 18.6118 2.20265 18.6118 3.6862C18.6118 5.16975 19.8145 6.3724 21.298 6.3724Z" stroke="#0049B7" stroke-width="1.5" stroke-miterlimit="10" stroke-linecap="round" stroke-linejoin="round"/>
<path d="M3.6862 22.6859C5.16975 22.6859 6.3724 21.4832 6.3724 19.9997C6.3724 18.5161 5.16975 17.3135 3.6862 17.3135C2.20265 17.3135 1 18.5161 1 19.9997C1 21.4832 2.20265 22.6859 3.6862 22.6859Z" stroke="#0049B7" stroke-width="1.5" stroke-miterlimit="10" stroke-linecap="round" stroke-linejoin="round"/>
<path d="M12.4919 22.6859C13.9754 22.6859 15.1781 21.4832 15.1781 19.9997C15.1781 18.5161 13.9754 17.3135 12.4919 17.3135C11.0083 17.3135 9.80566 18.5161 9.80566 19.9997C9.80566 21.4832 11.0083 22.6859 12.4919 22.6859Z" stroke="#0049B7" stroke-width="1.5" stroke-miterlimit="10" stroke-linecap="round" stroke-linejoin="round"/>
</svg>
