<svg width="25" height="25" viewBox="0 0 25 25" fill="none" xmlns="http://www.w3.org/2000/svg">
<g clip-path="url(#clip0)">
<path d="M12.5609 15.7895C15.9146 15.7895 18.6585 12.2368 18.6585 7.89473C18.6585 3.55263 15.9146 0 12.5609 0C9.20728 0 6.46338 3.55263 6.46338 7.89473C6.46338 12.2368 9.20728 15.7895 12.5609 15.7895ZM12.5609 1.97368C14.939 1.97368 16.8292 4.60526 16.8292 7.89473C16.8292 11.1842 14.939 13.8158 12.5609 13.8158C10.1829 13.8158 8.29265 11.1842 8.29265 7.89473C8.29265 4.60526 10.1829 1.97368 12.5609 1.97368Z" fill="#0049B7"/>
<path d="M18.1829 15.1317C17.6951 15.0659 17.2073 15.4606 17.2073 15.9869C17.1463 16.5133 17.5839 16.955 18 17.0396C18.1829 17.0396 22.5 18.5 23.1707 22.9607H1.89025C2.37805 17.6317 6.89025 17.0396 7.13415 17.0396C7.62196 16.9738 7.9878 16.5133 7.92683 15.987C7.86585 15.4606 7.43903 15.0659 6.95122 15.1317C6.89025 15.1317 0 15.987 0 24.0133C0 24.5396 0.426829 25.0001 0.914634 25.0001H24.0854C24.5732 25.0001 25 24.5396 25 24.0133C25 16.8695 18.3049 15.1317 18.1829 15.1317Z" fill="#0049B7"/>
</g>
<defs>
<clipPath id="clip0">
<rect width="25" height="25" fill="white"/>
</clipPath>
</defs>
</svg>
