<svg width="32" height="32" viewBox="0 0 32 32" fill="none" xmlns="http://www.w3.org/2000/svg">
<path d="M29.8445 13.1502C29.6729 13.1502 29.5011 13.0845 29.3702 12.9535L22.5688 6.15247C22.3071 5.89042 22.3071 5.46577 22.5688 5.20373C22.8309 4.94185 23.2557 4.94185 23.5178 5.20373L30.3181 12.0044C30.5801 12.2663 30.5801 12.6909 30.3181 12.953C30.1881 13.084 30.0181 13.15 29.8448 13.15" fill="#0049B7"/>
<path d="M28.2318 14.7627C28.0602 14.7627 27.8883 14.6971 27.7575 14.566L20.9568 7.76538C20.6947 7.50334 20.6947 7.07868 20.9568 6.81665C21.2188 6.55461 21.6436 6.5546 21.9057 6.81665L28.706 13.6173C28.9681 13.8794 28.9681 14.304 28.706 14.566C28.575 14.697 28.4034 14.7627 28.2317 14.7627" fill="#0049B7"/>
<path d="M26.6868 16.308C26.5149 16.308 26.3434 16.2425 26.2122 16.1113L19.4119 9.31067C19.1498 9.04863 19.1498 8.62397 19.4119 8.36194C19.6739 8.10006 20.0984 8.10006 20.3604 8.36194L27.1611 15.1626C27.4231 15.4246 27.4231 15.8494 27.1611 16.1112C27.0298 16.2425 26.8584 16.3078 26.6868 16.3078" fill="#0049B7"/>
<path d="M18.3046 14.0945C18.1327 14.0945 17.9612 14.0288 17.8303 13.8977C17.5683 13.6359 17.5683 13.2112 17.8303 12.9492L20.7079 10.0714C20.97 9.80953 21.3945 9.80953 21.6565 10.0714C21.9185 10.3335 21.9185 10.7581 21.6565 11.0201L18.7785 13.8978C18.6478 14.0288 18.4758 14.0945 18.3045 14.0945" fill="#0049B7"/>
<path d="M22.0995 17.8898C21.9277 17.8898 21.7561 17.8243 21.6252 17.6932C21.3632 17.4311 21.3632 17.0066 21.6252 16.7446L24.5028 13.8668C24.7649 13.6049 25.1897 13.6049 25.4517 13.8668C25.7138 14.1289 25.7138 14.5535 25.4517 14.8156L22.5738 17.6932C22.4431 17.8245 22.2711 17.8898 22.0995 17.8898" fill="#0049B7"/>
<path d="M27.9264 9.47271C27.4085 9.99078 26.5687 9.99078 26.0508 9.47271C25.5326 8.95465 25.5326 8.11498 26.0508 7.59705C26.5687 7.07898 27.4085 7.07898 27.9264 7.59705C28.4444 8.11505 28.4444 8.95471 27.9264 9.47271Z" fill="#0049B7"/>
<path d="M1.67084 13.1425C1.49913 13.1425 1.32741 13.0768 1.19641 12.9458C0.93453 12.6839 0.93453 12.2592 1.19641 11.9972L7.99708 5.19653C8.25928 4.93449 8.68408 4.93449 8.94598 5.19653C9.20802 5.45841 9.20802 5.88307 8.94598 6.1451L2.14498 12.9458C2.01398 13.0764 1.84231 13.1424 1.67064 13.1424" fill="#0049B7"/>
<path d="M3.28363 14.7552C3.11191 14.7552 2.94036 14.6895 2.80933 14.5584C2.54728 14.2966 2.54728 13.8717 2.80933 13.6099L9.60999 6.8092C9.87204 6.54732 10.2967 6.54732 10.5587 6.8092C10.8206 7.07125 10.8206 7.4959 10.5587 7.75794L3.75806 14.5586C3.62706 14.6896 3.45539 14.7553 3.28373 14.7553" fill="#0049B7"/>
<path d="M4.82904 16.3007C4.65749 16.3007 4.48577 16.235 4.35474 16.1041C4.09269 15.8421 4.09269 15.4174 4.35474 15.1554L11.1554 8.35474C11.4174 8.09269 11.8421 8.09269 12.1041 8.35474C12.3662 8.61678 12.3662 9.04144 12.1041 9.3033L5.3038 16.104C5.1728 16.2346 5.0008 16.3006 4.82914 16.3006" fill="#0049B7"/>
<path d="M9.41609 17.8821C9.24437 17.8821 9.07265 17.8163 8.94165 17.6855L6.06372 14.8077C5.80168 14.5458 5.80168 14.121 6.06372 13.8591C6.32609 13.5971 6.75072 13.5971 7.01279 13.8591L9.89039 16.7369C10.1524 16.9986 10.1524 17.4237 9.89039 17.6855C9.75939 17.8165 9.58772 17.8821 9.41605 17.8821" fill="#0049B7"/>
<path d="M13.2115 14.0867C13.0398 14.0867 12.8681 14.0211 12.7371 13.8901L9.85913 11.0123C9.59709 10.7504 9.59709 10.3256 9.85913 10.0637C10.1215 9.80168 10.5461 9.80168 10.8082 10.0637L13.6858 12.9413C13.9478 13.2034 13.9478 13.628 13.6858 13.8901C13.5548 14.0211 13.3828 14.0867 13.2115 14.0867" fill="#0049B7"/>
<path d="M5.46539 7.58967C5.98329 8.10757 5.98329 8.94727 5.46539 9.46534C4.94732 9.98324 4.10766 9.98324 3.58972 9.46534C3.07166 8.94727 3.07166 8.10761 3.58972 7.58967C4.10739 7.07167 4.94706 7.07167 5.46539 7.58967Z" fill="#0049B7"/>
<path d="M15.7621 27.2563C13.842 27.2563 11.9217 26.5255 10.4601 25.0636C7.53674 22.1401 7.53674 17.3833 10.4601 14.4596C13.3837 11.5356 18.1407 11.5356 21.0641 14.4596C23.9879 17.3831 23.9879 22.1399 21.0641 25.0636C19.6021 26.5256 17.6821 27.2563 15.7621 27.2563V27.2563ZM15.7621 13.6083C14.1852 13.6083 12.6089 14.2082 11.4091 15.4086C9.00868 17.8088 9.00868 21.7146 11.4091 24.1149C13.8093 26.5153 17.7147 26.5153 20.1154 24.1149C22.5158 21.7148 22.5158 17.8089 20.1154 15.4086C18.9154 14.2082 17.3381 13.6082 15.7621 13.6082V13.6083ZM20.5894 24.5892H20.5907H20.5894H20.5894Z" fill="#0049B7"/>
<path d="M7.84833 22.3807H6.57863C5.65253 22.3807 4.89893 21.6274 4.89893 20.701V18.8058C4.89893 17.8797 5.65249 17.1265 6.57863 17.1265H7.84833C8.77459 17.1265 9.52786 17.8797 9.52786 18.8058V20.701C9.52786 21.6273 8.77452 22.3807 7.84819 22.3807L7.84833 22.3807ZM6.57853 18.468C6.39542 18.468 6.24079 18.6226 6.24079 18.8059V20.7011C6.24079 20.8843 6.39542 21.0386 6.57853 21.0386H7.84822C8.03149 21.0386 8.18613 20.8843 8.18613 20.7011V18.8059C8.18613 18.6226 8.0315 18.468 7.84822 18.468H6.57856H6.57853Z" fill="#0049B7"/>
</svg>
