<svg width="37" height="15" viewBox="0 0 37 15" fill="none" xmlns="http://www.w3.org/2000/svg">
<path d="M17.5443 5.44482H15.1245V6.65498H17.5443V5.44482Z" fill="#0049B7"/>
<path fill-rule="evenodd" clip-rule="evenodd" d="M31.6702 3.04904L35.7797 3.6359C36.0775 3.67874 36.2989 3.93401 36.2989 4.23483V9.13528C36.3021 10.0764 35.7287 10.9237 34.8534 11.2703L32.8939 12.0566C32.8222 12.0851 32.7459 12.0996 32.6689 12.0996H32.4517C32.0882 13.137 31.2724 13.9528 30.235 14.3164C28.3501 14.9771 26.2865 13.9845 25.6258 12.0996H9.46243C9.09884 13.137 8.28328 13.9528 7.24569 14.3164C5.36079 14.9771 3.29717 13.9845 2.63645 12.0996H0.605079C0.270784 12.0996 0 11.8288 0 11.4946V7.90223C0.001477 6.91436 0.530737 6.00231 1.38789 5.51072C3.49705 4.30843 5.87798 3.66274 8.30569 3.63541L10.3796 2.50403C13.3927 0.863321 16.7684 0.00247399 20.199 1.23484e-05H20.9129C23.8199 -0.00318787 26.6936 0.615677 29.3414 1.815C30.1432 2.17662 30.9208 2.58871 31.6702 3.04904ZM5.56535 13.2601C6.87471 13.5276 8.15306 12.683 8.42065 11.3737C8.45314 11.2144 8.46963 11.0522 8.46963 10.8897C8.46988 9.73962 7.66097 8.74831 6.53427 8.51814C5.2249 8.25056 3.94655 9.09516 3.67872 10.4045C3.41114 11.7141 4.25574 12.9925 5.56535 13.2601ZM9.67955 10.8897H19.3593V4.83991H8.46963C6.19652 4.84065 3.9628 5.43391 1.98854 6.56111C1.50753 6.83633 1.21065 7.34811 1.20991 7.90223V10.8897H2.41982C2.41982 8.88493 4.04502 7.25973 6.04981 7.25973C8.05459 7.25973 9.67955 8.88493 9.67955 10.8897ZM10.8424 3.63H19.3593V1.23651C16.4186 1.36378 13.5456 2.16062 10.9591 3.56624L10.8424 3.63ZM20.9117 1.20992H20.5693V3.63H26.9738L28.0301 2.57369C25.7656 1.67001 23.3497 1.20722 20.9117 1.20992ZM28.5544 13.2601C29.864 13.5276 31.1424 12.683 31.41 11.3737C31.4425 11.2144 31.459 11.0522 31.459 10.8897C31.4592 9.73962 30.6503 8.74831 29.5236 8.51814C28.2142 8.25056 26.9356 9.09516 26.668 10.4045C26.4005 11.7141 27.2451 12.9925 28.5544 13.2601ZM33.2739 5.44474H35.0889V4.75917L31.373 4.22868C31.2896 4.21661 31.2098 4.18732 31.1384 4.14276C30.5193 3.75726 29.8791 3.40697 29.2206 3.0936L27.6517 4.66242C27.5385 4.77591 27.3846 4.83966 27.2241 4.83966H20.5695V10.889H25.4111C25.4131 8.88493 27.0371 7.26096 29.0411 7.259C29.1681 7.259 29.289 7.26564 29.4101 7.2777C29.4363 7.28015 29.4617 7.28452 29.4873 7.28891C29.5056 7.29204 29.5239 7.29519 29.5425 7.29764C29.5638 7.30076 29.5852 7.30367 29.6065 7.30658C29.661 7.31398 29.7154 7.32139 29.7688 7.33235C29.7953 7.33782 29.821 7.34488 29.8467 7.35195C29.8661 7.3573 29.8856 7.36265 29.9054 7.36731C29.924 7.37193 29.9427 7.3764 29.9613 7.38087C30.0131 7.39328 30.0647 7.40565 30.1154 7.42122C30.1477 7.43144 30.1753 7.44196 30.2064 7.45381C30.2248 7.46079 30.2443 7.46824 30.2668 7.47636C30.2833 7.48232 30.3006 7.48836 30.318 7.49445C30.364 7.51053 30.4109 7.52694 30.4482 7.54283C30.4821 7.55712 30.5126 7.57226 30.5454 7.58855C30.5624 7.59695 30.5799 7.60566 30.5988 7.61471C30.6149 7.6224 30.6315 7.63015 30.6481 7.63792C30.6888 7.657 30.7297 7.67617 30.7645 7.69471C30.8135 7.72056 30.8558 7.74715 30.908 7.78112C30.9339 7.79804 30.9604 7.81356 30.9865 7.82884C31.0127 7.84421 31.0385 7.85934 31.0629 7.8754C31.0977 7.89866 31.1313 7.92435 31.1646 7.94979C31.1775 7.95963 31.1904 7.96943 31.2032 7.97903C31.2187 7.99069 31.2343 8.00187 31.2499 8.01307C31.2805 8.03499 31.3112 8.05702 31.3415 8.08292C31.3689 8.10635 31.3959 8.13153 31.422 8.15596C31.4398 8.17259 31.4573 8.18888 31.4742 8.20403C31.4867 8.21523 31.4991 8.22608 31.5115 8.23691C31.5405 8.26228 31.5695 8.2876 31.5988 8.31727C31.6199 8.33878 31.6411 8.36265 31.6618 8.3859C31.6818 8.4084 31.7012 8.43032 31.7196 8.44897L31.7229 8.45226C31.7594 8.48923 31.7946 8.5249 31.8321 8.57008C31.8631 8.60736 31.8934 8.64859 31.9214 8.68656C31.9283 8.69597 31.9351 8.70519 31.9417 8.71409C31.9538 8.73046 31.9658 8.74606 31.9778 8.76171C31.9987 8.7889 32.0196 8.8162 32.0416 8.84776C32.0761 8.89724 32.1093 8.95238 32.1364 9.00088C32.1491 9.02326 32.1628 9.0448 32.1767 9.06665C32.1927 9.09189 32.209 9.11754 32.2243 9.14538C32.243 9.17977 32.2603 9.21611 32.2771 9.25168C32.2857 9.26982 32.2943 9.28776 32.3028 9.30514C32.3104 9.32047 32.3182 9.33563 32.3261 9.3508C32.3445 9.38652 32.363 9.42228 32.3779 9.46047C32.3895 9.49047 32.4004 9.52114 32.4113 9.55178C32.4202 9.57695 32.4291 9.60212 32.4385 9.62688C32.4444 9.64283 32.4504 9.65867 32.4564 9.67449C32.4712 9.71339 32.486 9.75216 32.4988 9.79206C32.5102 9.82754 32.5193 9.8637 32.5283 9.89993C32.5336 9.92126 32.539 9.94262 32.5448 9.96388C32.548 9.9755 32.5512 9.98725 32.5545 9.99907C32.5675 10.0459 32.5807 10.0937 32.5903 10.1377C32.5985 10.175 32.6045 10.215 32.6105 10.2558C32.6134 10.275 32.6162 10.2943 32.6194 10.3137C32.6222 10.3312 32.6252 10.3487 32.6282 10.3663C32.6355 10.4092 32.6428 10.4521 32.6472 10.4951C32.6509 10.5331 32.6528 10.5729 32.6546 10.611C32.6556 10.6337 32.6567 10.6558 32.658 10.6765C32.6592 10.6947 32.6608 10.7129 32.6624 10.731C32.6656 10.7683 32.6689 10.8055 32.6689 10.8429L34.4041 10.146C34.8186 9.98234 35.0904 9.58109 35.0889 9.13528V6.6549H33.2739V5.44474Z" fill="#0049B7"/>
</svg>
